<?xml version="1.0" encoding="UTF-8" standalone="no"?>
<!DOCTYPE svg PUBLIC "-//W3C//DTD SVG 1.1//EN"
 "http://www.w3.org/Graphics/SVG/1.1/DTD/svg11.dtd">
<!-- Generated by graphviz version 2.40.1 (20161225.0304)
 -->
<!-- Title: G Pages: 1 -->
<svg width="537pt" height="552pt"
 viewBox="0.00 0.00 537.30 552.00" xmlns="http://www.w3.org/2000/svg" xmlns:xlink="http://www.w3.org/1999/xlink">
<g id="graph0" class="graph" transform="scale(1 1) rotate(0) translate(4 548)">
<title>G</title>
<polygon fill="#ffffff" stroke="transparent" points="-4,4 -4,-548 533.2999,-548 533.2999,4 -4,4"/>
<!-- A0 -->
<g id="node1" class="node">
<title>A0</title>
<polygon fill="none" stroke="#000000" points="59.5129,-92 59.5129,-124 126.5129,-124 126.5129,-92 59.5129,-92"/>
<text text-anchor="start" x="82.4594" y="-105" font-family="Helvetica,sans-Serif" font-size="10.00" fill="#000000">User</text>
<polygon fill="none" stroke="#000000" points="59.5129,0 59.5129,-92 126.5129,-92 126.5129,0 59.5129,0"/>
<text text-anchor="start" x="69.1219" y="-73" font-family="Helvetica,sans-Serif" font-size="10.00" fill="#000000">&#45;username</text>
<text text-anchor="start" x="78.8454" y="-61" font-family="Helvetica,sans-Serif" font-size="10.00" fill="#000000">&#45;name</text>
<text text-anchor="start" x="77.4559" y="-49" font-family="Helvetica,sans-Serif" font-size="10.00" fill="#000000">&#45;avatar</text>
<text text-anchor="start" x="79.4059" y="-37" font-family="Helvetica,sans-Serif" font-size="10.00" fill="#000000">&#45;email</text>
<text text-anchor="start" x="69.9564" y="-25" font-family="Helvetica,sans-Serif" font-size="10.00" fill="#000000">&#45;password</text>
<text text-anchor="start" x="83.0154" y="-13" font-family="Helvetica,sans-Serif" font-size="10.00" fill="#000000">&#45;role</text>
</g>
<!-- A1 -->
<g id="node2" class="node">
<title>A1</title>
<polygon fill="none" stroke="#000000" points="21.5129,-266 21.5129,-298 81.5129,-298 81.5129,-266 21.5129,-266"/>
<text text-anchor="start" x="42.9049" y="-279" font-family="Helvetica,sans-Serif" font-size="10.00" fill="#000000">Trip</text>
<polygon fill="none" stroke="#000000" points="21.5129,-186 21.5129,-266 81.5129,-266 81.5129,-186 21.5129,-186"/>
<text text-anchor="start" x="39.8504" y="-247" font-family="Helvetica,sans-Serif" font-size="10.00" fill="#000000">&#45;from</text>
<text text-anchor="start" x="45.6794" y="-235" font-family="Helvetica,sans-Serif" font-size="10.00" fill="#000000">&#45;to</text>
<text text-anchor="start" x="31.2314" y="-223" font-family="Helvetica,sans-Serif" font-size="10.00" fill="#000000">&#45;distance</text>
<text text-anchor="start" x="31.7874" y="-211" font-family="Helvetica,sans-Serif" font-size="10.00" fill="#000000">&#45;duration</text>
<text text-anchor="start" x="40.1249" y="-199" font-family="Helvetica,sans-Serif" font-size="10.00" fill="#000000">&#45;user</text>
</g>
<!-- A1&#45;&gt;A0 -->
<g id="edge7" class="edge">
<title>A1&#45;&gt;A0</title>
<path fill="none" stroke="#000000" d="M64.3731,-185.5407C68.8116,-166.0545 73.8078,-144.1203 78.345,-124.2008"/>
<text text-anchor="middle" x="82.5606" y="-140.7515" font-family="Helvetica,sans-Serif" font-size="10.00" fill="#000000">1</text>
<text text-anchor="middle" x="60.1575" y="-162.9901" font-family="Helvetica,sans-Serif" font-size="10.00" fill="#000000">n</text>
</g>
<!-- A2 -->
<g id="node3" class="node">
<title>A2</title>
<polygon fill="none" stroke="#000000" points="29.5129,-512 29.5129,-544 142.5129,-544 142.5129,-512 29.5129,-512"/>
<text text-anchor="start" x="75.7349" y="-525" font-family="Helvetica,sans-Serif" font-size="10.00" fill="#000000">Ride</text>
<polygon fill="none" stroke="#000000" points="29.5129,-360 29.5129,-512 142.5129,-512 142.5129,-360 29.5129,-360"/>
<text text-anchor="start" x="58.5069" y="-493" font-family="Helvetica,sans-Serif" font-size="10.00" fill="#000000">&#45;passengers</text>
<text text-anchor="start" x="39.0594" y="-481" font-family="Helvetica,sans-Serif" font-size="10.00" fill="#000000">&#45;passengersOneWay</text>
<text text-anchor="start" x="74.6204" y="-469" font-family="Helvetica,sans-Serif" font-size="10.00" fill="#000000">&#45;date</text>
<text text-anchor="start" x="41.8404" y="-457" font-family="Helvetica,sans-Serif" font-size="10.00" fill="#000000">&#45;pricePerPassenger</text>
<text text-anchor="start" x="60.4569" y="-445" font-family="Helvetica,sans-Serif" font-size="10.00" fill="#000000">&#45;extraCosts</text>
<text text-anchor="start" x="56.0079" y="-433" font-family="Helvetica,sans-Serif" font-size="10.00" fill="#000000">&#45;observations</text>
<text text-anchor="start" x="74.9004" y="-421" font-family="Helvetica,sans-Serif" font-size="10.00" fill="#000000">&#45;paid</text>
<text text-anchor="start" x="77.4044" y="-409" font-family="Helvetica,sans-Serif" font-size="10.00" fill="#000000">&#45;car</text>
<text text-anchor="start" x="77.4054" y="-397" font-family="Helvetica,sans-Serif" font-size="10.00" fill="#000000">&#45;trip</text>
<text text-anchor="start" x="75.7404" y="-385" font-family="Helvetica,sans-Serif" font-size="10.00" fill="#000000">&#45;bills</text>
<text text-anchor="start" x="71.8509" y="-373" font-family="Helvetica,sans-Serif" font-size="10.00" fill="#000000">&#45;driver</text>
</g>
<!-- A2&#45;&gt;A0 -->
<g id="edge3" class="edge">
<title>A2&#45;&gt;A0</title>
<path fill="none" stroke="#000000" d="M30.2484,-359.731C22.9212,-343.6461 16.5552,-326.7041 12.5129,-310 -1.7037,-251.2512 -5.9333,-231.561 12.5129,-174 21.7013,-145.3282 41.2247,-117.7483 58.6838,-97.1313"/>
<text text-anchor="middle" x="53.6378" y="-113.4843" font-family="Helvetica,sans-Serif" font-size="10.00" fill="#000000">1</text>
<text text-anchor="middle" x="15.1349" y="-343.6321" font-family="Helvetica,sans-Serif" font-size="10.00" fill="#000000">n</text>
</g>
<!-- A2&#45;&gt;A1 -->
<g id="edge5" class="edge">
<title>A2&#45;&gt;A1</title>
<path fill="none" stroke="#000000" d="M70.6,-359.8909C67.1921,-338.842 63.6706,-317.0914 60.5945,-298.0918"/>
<text text-anchor="middle" x="71.8352" y="-311.6341" font-family="Helvetica,sans-Serif" font-size="10.00" fill="#000000">1</text>
<text text-anchor="middle" x="59.3593" y="-340.3487" font-family="Helvetica,sans-Serif" font-size="10.00" fill="#000000">n</text>
</g>
<!-- A3 -->
<g id="node4" class="node">
<title>A3</title>
<polygon fill="none" stroke="#000000" points="99.5129,-278 99.5129,-310 167.5129,-310 167.5129,-278 99.5129,-278"/>
<text text-anchor="start" x="126.8499" y="-291" font-family="Helvetica,sans-Serif" font-size="10.00" fill="#000000">Bill</text>
<polygon fill="none" stroke="#000000" points="99.5129,-174 99.5129,-278 167.5129,-278 167.5129,-174 99.5129,-174"/>
<text text-anchor="start" x="121.0099" y="-259" font-family="Helvetica,sans-Serif" font-size="10.00" fill="#000000">payer</text>
<text text-anchor="start" x="115.7359" y="-247" font-family="Helvetica,sans-Serif" font-size="10.00" fill="#000000">receiver</text>
<text text-anchor="start" x="123.7849" y="-235" font-family="Helvetica,sans-Serif" font-size="10.00" fill="#000000">date</text>
<text text-anchor="start" x="116.8409" y="-223" font-family="Helvetica,sans-Serif" font-size="10.00" fill="#000000">amount</text>
<text text-anchor="start" x="114.3454" y="-211" font-family="Helvetica,sans-Serif" font-size="10.00" fill="#000000">currency</text>
<text text-anchor="start" x="109.3424" y="-199" font-family="Helvetica,sans-Serif" font-size="10.00" fill="#000000">description</text>
<text text-anchor="start" x="124.0649" y="-187" font-family="Helvetica,sans-Serif" font-size="10.00" fill="#000000">paid</text>
</g>
<!-- A2&#45;&gt;A3 -->
<g id="edge2" class="edge">
<title>A2&#45;&gt;A3</title>
<path fill="none" stroke="#000000" d="M106.5664,-359.8909C110.3952,-343.14 114.3256,-325.9446 117.9598,-310.045"/>
<text text-anchor="middle" x="122.1607" y="-326.5988" font-family="Helvetica,sans-Serif" font-size="10.00" fill="#000000">1..n</text>
<text text-anchor="middle" x="102.3655" y="-337.3371" font-family="Helvetica,sans-Serif" font-size="10.00" fill="#000000">0..1</text>
</g>
<!-- A6 -->
<g id="node7" class="node">
<title>A6</title>
<polygon fill="none" stroke="#000000" points="186.5129,-266 186.5129,-298 281.5129,-298 281.5129,-266 186.5129,-266"/>
<text text-anchor="start" x="225.9594" y="-279" font-family="Helvetica,sans-Serif" font-size="10.00" fill="#000000">Car</text>
<polygon fill="none" stroke="#000000" points="186.5129,-186 186.5129,-266 281.5129,-266 281.5129,-186 186.5129,-186"/>
<text text-anchor="start" x="218.7359" y="-247" font-family="Helvetica,sans-Serif" font-size="10.00" fill="#000000">&#45;model</text>
<text text-anchor="start" x="210.9524" y="-235" font-family="Helvetica,sans-Serif" font-size="10.00" fill="#000000">&#45;freeSeats</text>
<text text-anchor="start" x="219.8409" y="-223" font-family="Helvetica,sans-Serif" font-size="10.00" fill="#000000">&#45;photo</text>
<text text-anchor="start" x="196.2304" y="-211" font-family="Helvetica,sans-Serif" font-size="10.00" fill="#000000">&#45;distancePerLiter</text>
<text text-anchor="start" x="218.7359" y="-199" font-family="Helvetica,sans-Serif" font-size="10.00" fill="#000000">&#45;owner</text>
</g>
<!-- A2&#45;&gt;A6 -->
<g id="edge6" class="edge">
<title>A2&#45;&gt;A6</title>
<path fill="none" stroke="#000000" d="M142.0989,-371.7091C159.3988,-347.1619 178.045,-320.7045 193.9565,-298.1274"/>
<text text-anchor="middle" x="190.4235" y="-314.8129" font-family="Helvetica,sans-Serif" font-size="10.00" fill="#000000">1</text>
<text text-anchor="middle" x="145.6319" y="-349.0236" font-family="Helvetica,sans-Serif" font-size="10.00" fill="#000000">n</text>
</g>
<!-- A3&#45;&gt;A0 -->
<g id="edge8" class="edge">
<title>A3&#45;&gt;A0</title>
<path fill="none" stroke="#000000" d="M118.0126,-173.9497C114.2936,-157.6225 110.3408,-140.2688 106.6856,-124.2215"/>
<text text-anchor="middle" x="118.9525" y="-137.0178" font-family="Helvetica,sans-Serif" font-size="10.00" fill="#000000">0..1</text>
<text text-anchor="middle" x="105.7457" y="-155.1534" font-family="Helvetica,sans-Serif" font-size="10.00" fill="#000000">n</text>
</g>
<!-- A4 -->
<g id="node5" class="node">
<title>A4</title>
<polygon fill="#fff8dc" stroke="#000000" points="401.8785,-474 291.1474,-474 291.1474,-430 407.8785,-430 407.8785,-468 401.8785,-474"/>
<polyline fill="none" stroke="#000000" points="401.8785,-474 401.8785,-468 "/>
<polyline fill="none" stroke="#000000" points="407.8785,-468 401.8785,-468 "/>
<text text-anchor="middle" x="349.5129" y="-461" font-family="Helvetica,sans-Serif" font-size="10.00" fill="#000000">Payer is optional</text>
<text text-anchor="middle" x="349.5129" y="-449" font-family="Helvetica,sans-Serif" font-size="10.00" fill="#000000">because of possible</text>
<text text-anchor="middle" x="349.5129" y="-437" font-family="Helvetica,sans-Serif" font-size="10.00" fill="#000000">guests</text>
</g>
<!-- A5 -->
<g id="node6" class="node">
<title>A5</title>
<polygon fill="none" stroke="#000000" points="194.5129,-470 194.5129,-502 273.5129,-502 273.5129,-470 194.5129,-470"/>
<text text-anchor="start" x="209.0074" y="-483" font-family="Helvetica,sans-Serif" font-size="10.00" fill="#000000">FuelSupply</text>
<polygon fill="none" stroke="#000000" points="194.5129,-402 194.5129,-470 273.5129,-470 273.5129,-402 194.5129,-402"/>
<text text-anchor="start" x="204.0144" y="-451" font-family="Helvetica,sans-Serif" font-size="10.00" fill="#000000">&#45;pricePerLiter</text>
<text text-anchor="start" x="221.5154" y="-439" font-family="Helvetica,sans-Serif" font-size="10.00" fill="#000000">&#45;price</text>
<text text-anchor="start" x="222.6204" y="-427" font-family="Helvetica,sans-Serif" font-size="10.00" fill="#000000">&#45;date</text>
<text text-anchor="start" x="225.4044" y="-415" font-family="Helvetica,sans-Serif" font-size="10.00" fill="#000000">&#45;car</text>
</g>
<!-- A5&#45;&gt;A6 -->
<g id="edge1" class="edge">
<title>A5&#45;&gt;A6</title>
<path fill="none" stroke="#000000" d="M233.5129,-401.9666C233.5129,-370.7884 233.5129,-330.6055 233.5129,-298.3134"/>
<text text-anchor="middle" x="241.9653" y="-313.4395" font-family="Helvetica,sans-Serif" font-size="10.00" fill="#000000">1</text>
<text text-anchor="middle" x="225.0606" y="-380.8404" font-family="Helvetica,sans-Serif" font-size="10.00" fill="#000000">0..n</text>
</g>
<!-- A6&#45;&gt;A0 -->
<g id="edge4" class="edge">
<title>A6&#45;&gt;A0</title>
<path fill="none" stroke="#000000" d="M189.2865,-185.5407C168.8535,-159.456 144.9843,-128.9848 126.0642,-104.8314"/>
<text text-anchor="middle" x="143.8958" y="-110.8885" font-family="Helvetica,sans-Serif" font-size="10.00" fill="#000000">1</text>
<text text-anchor="middle" x="171.4549" y="-173.4836" font-family="Helvetica,sans-Serif" font-size="10.00" fill="#000000">n</text>
</g>
<!-- A7 -->
<g id="node8" class="node">
<title>A7</title>
<polygon fill="#fff8dc" stroke="#000000" points="523.0878,-474 425.9381,-474 425.9381,-430 529.0878,-430 529.0878,-468 523.0878,-474"/>
<polyline fill="none" stroke="#000000" points="523.0878,-474 523.0878,-468 "/>
<polyline fill="none" stroke="#000000" points="529.0878,-468 523.0878,-468 "/>
<text text-anchor="middle" x="477.5129" y="-461" font-family="Helvetica,sans-Serif" font-size="10.00" fill="#000000">A bill can only be</text>
<text text-anchor="middle" x="477.5129" y="-449" font-family="Helvetica,sans-Serif" font-size="10.00" fill="#000000">linked to 0 or 1</text>
<text text-anchor="middle" x="477.5129" y="-437" font-family="Helvetica,sans-Serif" font-size="10.00" fill="#000000">ride</text>
</g>
</g>
</svg>
