<?xml version="1.0" encoding="UTF-8" standalone="no"?>
<!DOCTYPE svg PUBLIC "-//W3C//DTD SVG 1.1//EN"
 "http://www.w3.org/Graphics/SVG/1.1/DTD/svg11.dtd">
<!-- Generated by graphviz version 2.40.1 (20161225.0304)
 -->
<!-- Title: G Pages: 1 -->
<svg width="540pt" height="540pt"
 viewBox="0.00 0.00 539.98 540.00" xmlns="http://www.w3.org/2000/svg" xmlns:xlink="http://www.w3.org/1999/xlink">
<g id="graph0" class="graph" transform="scale(1 1) rotate(0) translate(4 536)">
<title>G</title>
<polygon fill="#ffffff" stroke="transparent" points="-4,4 -4,-536 535.9822,-536 535.9822,4 -4,4"/>
<!-- A0 -->
<g id="node1" class="node">
<title>A0</title>
<polygon fill="none" stroke="#000000" points="103.1952,-92 103.1952,-124 170.1952,-124 170.1952,-92 103.1952,-92"/>
<text text-anchor="start" x="126.1417" y="-105" font-family="Helvetica,sans-Serif" font-size="10.00" fill="#000000">User</text>
<polygon fill="none" stroke="#000000" points="103.1952,0 103.1952,-92 170.1952,-92 170.1952,0 103.1952,0"/>
<text text-anchor="start" x="112.8042" y="-73" font-family="Helvetica,sans-Serif" font-size="10.00" fill="#000000">&#45;username</text>
<text text-anchor="start" x="122.5277" y="-61" font-family="Helvetica,sans-Serif" font-size="10.00" fill="#000000">&#45;name</text>
<text text-anchor="start" x="121.1382" y="-49" font-family="Helvetica,sans-Serif" font-size="10.00" fill="#000000">&#45;avatar</text>
<text text-anchor="start" x="123.0882" y="-37" font-family="Helvetica,sans-Serif" font-size="10.00" fill="#000000">&#45;email</text>
<text text-anchor="start" x="113.6387" y="-25" font-family="Helvetica,sans-Serif" font-size="10.00" fill="#000000">&#45;password</text>
<text text-anchor="start" x="126.6977" y="-13" font-family="Helvetica,sans-Serif" font-size="10.00" fill="#000000">&#45;role</text>
</g>
<!-- A1 -->
<g id="node2" class="node">
<title>A1</title>
<polygon fill="none" stroke="#000000" points="24.1952,-260 24.1952,-292 84.1952,-292 84.1952,-260 24.1952,-260"/>
<text text-anchor="start" x="45.5872" y="-273" font-family="Helvetica,sans-Serif" font-size="10.00" fill="#000000">Trip</text>
<polygon fill="none" stroke="#000000" points="24.1952,-192 24.1952,-260 84.1952,-260 84.1952,-192 24.1952,-192"/>
<text text-anchor="start" x="42.5327" y="-241" font-family="Helvetica,sans-Serif" font-size="10.00" fill="#000000">&#45;from</text>
<text text-anchor="start" x="48.3617" y="-229" font-family="Helvetica,sans-Serif" font-size="10.00" fill="#000000">&#45;to</text>
<text text-anchor="start" x="33.9137" y="-217" font-family="Helvetica,sans-Serif" font-size="10.00" fill="#000000">&#45;distance</text>
<text text-anchor="start" x="34.4697" y="-205" font-family="Helvetica,sans-Serif" font-size="10.00" fill="#000000">&#45;duration</text>
</g>
<!-- A2 -->
<g id="node3" class="node">
<title>A2</title>
<polygon fill="none" stroke="#000000" points="32.1952,-500 32.1952,-532 145.1952,-532 145.1952,-500 32.1952,-500"/>
<text text-anchor="start" x="78.4172" y="-513" font-family="Helvetica,sans-Serif" font-size="10.00" fill="#000000">Ride</text>
<polygon fill="none" stroke="#000000" points="32.1952,-360 32.1952,-500 145.1952,-500 145.1952,-360 32.1952,-360"/>
<text text-anchor="start" x="61.1892" y="-481" font-family="Helvetica,sans-Serif" font-size="10.00" fill="#000000">&#45;passengers</text>
<text text-anchor="start" x="41.7417" y="-469" font-family="Helvetica,sans-Serif" font-size="10.00" fill="#000000">&#45;passengersOneWay</text>
<text text-anchor="start" x="77.3027" y="-457" font-family="Helvetica,sans-Serif" font-size="10.00" fill="#000000">&#45;date</text>
<text text-anchor="start" x="44.5227" y="-445" font-family="Helvetica,sans-Serif" font-size="10.00" fill="#000000">&#45;pricePerPassenger</text>
<text text-anchor="start" x="63.1392" y="-433" font-family="Helvetica,sans-Serif" font-size="10.00" fill="#000000">&#45;extraCosts</text>
<text text-anchor="start" x="58.6902" y="-421" font-family="Helvetica,sans-Serif" font-size="10.00" fill="#000000">&#45;observations</text>
<text text-anchor="start" x="77.5827" y="-409" font-family="Helvetica,sans-Serif" font-size="10.00" fill="#000000">&#45;paid</text>
<text text-anchor="start" x="80.0867" y="-397" font-family="Helvetica,sans-Serif" font-size="10.00" fill="#000000">&#45;car</text>
<text text-anchor="start" x="80.0877" y="-385" font-family="Helvetica,sans-Serif" font-size="10.00" fill="#000000">&#45;trip</text>
<text text-anchor="start" x="78.4227" y="-373" font-family="Helvetica,sans-Serif" font-size="10.00" fill="#000000">&#45;bills</text>
</g>
<!-- A2&#45;&gt;A0 -->
<g id="edge3" class="edge">
<title>A2&#45;&gt;A0</title>
<path fill="none" stroke="#000000" d="M33.8372,-359.6895C26.1345,-343.7119 19.4097,-326.7627 15.1952,-310 .4571,-251.3799 -9.0095,-229.3865 15.1952,-174 32.905,-133.4755 73.3105,-101.0714 102.5668,-81.7465"/>
<text text-anchor="middle" x="92.3464" y="-95.9379" font-family="Helvetica,sans-Serif" font-size="10.00" fill="#000000">1</text>
<text text-anchor="middle" x="18.4472" y="-343.9166" font-family="Helvetica,sans-Serif" font-size="10.00" fill="#000000">n</text>
</g>
<!-- A2&#45;&gt;A1 -->
<g id="edge5" class="edge">
<title>A2&#45;&gt;A1</title>
<path fill="none" stroke="#000000" d="M73.8254,-359.7813C69.9832,-336.7279 65.9573,-312.5722 62.5585,-292.1796"/>
<text text-anchor="middle" x="73.8758" y="-305.6696" font-family="Helvetica,sans-Serif" font-size="10.00" fill="#000000">n</text>
<text text-anchor="middle" x="62.5082" y="-340.2914" font-family="Helvetica,sans-Serif" font-size="10.00" fill="#000000">1</text>
</g>
<!-- A3 -->
<g id="node4" class="node">
<title>A3</title>
<polygon fill="none" stroke="#000000" points="102.1952,-278 102.1952,-310 170.1952,-310 170.1952,-278 102.1952,-278"/>
<text text-anchor="start" x="129.5322" y="-291" font-family="Helvetica,sans-Serif" font-size="10.00" fill="#000000">Bill</text>
<polygon fill="none" stroke="#000000" points="102.1952,-174 102.1952,-278 170.1952,-278 170.1952,-174 102.1952,-174"/>
<text text-anchor="start" x="123.6922" y="-259" font-family="Helvetica,sans-Serif" font-size="10.00" fill="#000000">payer</text>
<text text-anchor="start" x="118.4182" y="-247" font-family="Helvetica,sans-Serif" font-size="10.00" fill="#000000">reciever</text>
<text text-anchor="start" x="126.4672" y="-235" font-family="Helvetica,sans-Serif" font-size="10.00" fill="#000000">date</text>
<text text-anchor="start" x="119.5232" y="-223" font-family="Helvetica,sans-Serif" font-size="10.00" fill="#000000">amount</text>
<text text-anchor="start" x="117.0277" y="-211" font-family="Helvetica,sans-Serif" font-size="10.00" fill="#000000">currency</text>
<text text-anchor="start" x="112.0247" y="-199" font-family="Helvetica,sans-Serif" font-size="10.00" fill="#000000">description</text>
<text text-anchor="start" x="126.7472" y="-187" font-family="Helvetica,sans-Serif" font-size="10.00" fill="#000000">paid</text>
</g>
<!-- A2&#45;&gt;A3 -->
<g id="edge2" class="edge">
<title>A2&#45;&gt;A3</title>
<path fill="none" stroke="#000000" d="M108.482,-359.7813C112.3711,-343.2524 116.3936,-326.1569 120.1274,-310.288"/>
<text text-anchor="middle" x="124.2035" y="-326.8683" font-family="Helvetica,sans-Serif" font-size="10.00" fill="#000000">1..n</text>
<text text-anchor="middle" x="104.4059" y="-337.2011" font-family="Helvetica,sans-Serif" font-size="10.00" fill="#000000">0..1</text>
</g>
<!-- A6 -->
<g id="node7" class="node">
<title>A6</title>
<polygon fill="none" stroke="#000000" points="189.1952,-260 189.1952,-292 284.1952,-292 284.1952,-260 189.1952,-260"/>
<text text-anchor="start" x="228.6417" y="-273" font-family="Helvetica,sans-Serif" font-size="10.00" fill="#000000">Car</text>
<polygon fill="none" stroke="#000000" points="189.1952,-192 189.1952,-260 284.1952,-260 284.1952,-192 189.1952,-192"/>
<text text-anchor="start" x="221.4182" y="-241" font-family="Helvetica,sans-Serif" font-size="10.00" fill="#000000">&#45;model</text>
<text text-anchor="start" x="213.6347" y="-229" font-family="Helvetica,sans-Serif" font-size="10.00" fill="#000000">&#45;freeSeats</text>
<text text-anchor="start" x="222.5232" y="-217" font-family="Helvetica,sans-Serif" font-size="10.00" fill="#000000">&#45;photo</text>
<text text-anchor="start" x="198.9127" y="-205" font-family="Helvetica,sans-Serif" font-size="10.00" fill="#000000">&#45;distancePerLiter</text>
</g>
<!-- A2&#45;&gt;A6 -->
<g id="edge6" class="edge">
<title>A2&#45;&gt;A6</title>
<path fill="none" stroke="#000000" d="M144.7812,-368.0031C163.2236,-342.5826 183.1958,-315.0532 199.7541,-292.2297"/>
<text text-anchor="middle" x="195.9515" y="-308.8648" font-family="Helvetica,sans-Serif" font-size="10.00" fill="#000000">n</text>
<text text-anchor="middle" x="148.5838" y="-345.368" font-family="Helvetica,sans-Serif" font-size="10.00" fill="#000000">1</text>
</g>
<!-- A3&#45;&gt;A0 -->
<g id="edge7" class="edge">
<title>A3&#45;&gt;A0</title>
<path fill="none" stroke="#000000" d="M136.1952,-173.9497C136.1952,-157.6225 136.1952,-140.2688 136.1952,-124.2215"/>
<text text-anchor="middle" x="144.6476" y="-139.3476" font-family="Helvetica,sans-Serif" font-size="10.00" fill="#000000">1</text>
<text text-anchor="middle" x="127.7429" y="-152.8236" font-family="Helvetica,sans-Serif" font-size="10.00" fill="#000000">n</text>
</g>
<!-- A4 -->
<g id="node5" class="node">
<title>A4</title>
<polygon fill="#fff8dc" stroke="#000000" points="404.5608,-468 293.8296,-468 293.8296,-424 410.5608,-424 410.5608,-462 404.5608,-468"/>
<polyline fill="none" stroke="#000000" points="404.5608,-468 404.5608,-462 "/>
<polyline fill="none" stroke="#000000" points="410.5608,-462 404.5608,-462 "/>
<text text-anchor="middle" x="352.1952" y="-455" font-family="Helvetica,sans-Serif" font-size="10.00" fill="#000000">Payer is optional</text>
<text text-anchor="middle" x="352.1952" y="-443" font-family="Helvetica,sans-Serif" font-size="10.00" fill="#000000">because of possible</text>
<text text-anchor="middle" x="352.1952" y="-431" font-family="Helvetica,sans-Serif" font-size="10.00" fill="#000000">guests</text>
</g>
<!-- A5 -->
<g id="node6" class="node">
<title>A5</title>
<polygon fill="none" stroke="#000000" points="197.1952,-464 197.1952,-496 276.1952,-496 276.1952,-464 197.1952,-464"/>
<text text-anchor="start" x="211.6897" y="-477" font-family="Helvetica,sans-Serif" font-size="10.00" fill="#000000">FuelSupply</text>
<polygon fill="none" stroke="#000000" points="197.1952,-396 197.1952,-464 276.1952,-464 276.1952,-396 197.1952,-396"/>
<text text-anchor="start" x="206.6967" y="-445" font-family="Helvetica,sans-Serif" font-size="10.00" fill="#000000">&#45;pricePerLiter</text>
<text text-anchor="start" x="224.1977" y="-433" font-family="Helvetica,sans-Serif" font-size="10.00" fill="#000000">&#45;price</text>
<text text-anchor="start" x="225.3027" y="-421" font-family="Helvetica,sans-Serif" font-size="10.00" fill="#000000">&#45;date</text>
<text text-anchor="start" x="228.0867" y="-409" font-family="Helvetica,sans-Serif" font-size="10.00" fill="#000000">&#45;car</text>
</g>
<!-- A5&#45;&gt;A6 -->
<g id="edge1" class="edge">
<title>A5&#45;&gt;A6</title>
<path fill="none" stroke="#000000" d="M236.1952,-395.8347C236.1952,-364.3358 236.1952,-323.8545 236.1952,-292.3252"/>
<text text-anchor="middle" x="244.6476" y="-307.4514" font-family="Helvetica,sans-Serif" font-size="10.00" fill="#000000">1</text>
<text text-anchor="middle" x="227.7429" y="-374.7086" font-family="Helvetica,sans-Serif" font-size="10.00" fill="#000000">0..n</text>
</g>
<!-- A6&#45;&gt;A0 -->
<g id="edge4" class="edge">
<title>A6&#45;&gt;A0</title>
<path fill="none" stroke="#000000" d="M208.3396,-191.86C196.3768,-170.3269 182.2946,-144.9789 169.7622,-122.4205"/>
<text text-anchor="middle" x="185.9537" y="-131.1608" font-family="Helvetica,sans-Serif" font-size="10.00" fill="#000000">1</text>
<text text-anchor="middle" x="192.1481" y="-177.1197" font-family="Helvetica,sans-Serif" font-size="10.00" fill="#000000">n</text>
</g>
<!-- A7 -->
<g id="node8" class="node">
<title>A7</title>
<polygon fill="#fff8dc" stroke="#000000" points="525.7701,-468 428.6203,-468 428.6203,-424 531.7701,-424 531.7701,-462 525.7701,-468"/>
<polyline fill="none" stroke="#000000" points="525.7701,-468 525.7701,-462 "/>
<polyline fill="none" stroke="#000000" points="531.7701,-462 525.7701,-462 "/>
<text text-anchor="middle" x="480.1952" y="-455" font-family="Helvetica,sans-Serif" font-size="10.00" fill="#000000">A bill can only be</text>
<text text-anchor="middle" x="480.1952" y="-443" font-family="Helvetica,sans-Serif" font-size="10.00" fill="#000000">linked to 0 or 1</text>
<text text-anchor="middle" x="480.1952" y="-431" font-family="Helvetica,sans-Serif" font-size="10.00" fill="#000000">ride</text>
</g>
</g>
</svg>
