<?xml version="1.0" encoding="UTF-8" standalone="no"?>
<!DOCTYPE svg PUBLIC "-//W3C//DTD SVG 1.1//EN"
 "http://www.w3.org/Graphics/SVG/1.1/DTD/svg11.dtd">
<!-- Generated by graphviz version 2.40.1 (20161225.0304)
 -->
<!-- Title: G Pages: 1 -->
<svg width="540pt" height="666pt"
 viewBox="0.00 0.00 539.98 666.00" xmlns="http://www.w3.org/2000/svg" xmlns:xlink="http://www.w3.org/1999/xlink">
<g id="graph0" class="graph" transform="scale(1 1) rotate(0) translate(4 662)">
<title>G</title>
<polygon fill="#ffffff" stroke="transparent" points="-4,4 -4,-662 535.9822,-662 535.9822,4 -4,4"/>
<!-- A0 -->
<g id="node1" class="node">
<title>A0</title>
<polygon fill="none" stroke="#000000" points="103.1952,-218 103.1952,-250 170.1952,-250 170.1952,-218 103.1952,-218"/>
<text text-anchor="start" x="126.1417" y="-231" font-family="Helvetica,sans-Serif" font-size="10.00" fill="#000000">User</text>
<polygon fill="none" stroke="#000000" points="103.1952,-126 103.1952,-218 170.1952,-218 170.1952,-126 103.1952,-126"/>
<text text-anchor="start" x="112.8042" y="-199" font-family="Helvetica,sans-Serif" font-size="10.00" fill="#000000">&#45;username</text>
<text text-anchor="start" x="122.5277" y="-187" font-family="Helvetica,sans-Serif" font-size="10.00" fill="#000000">&#45;name</text>
<text text-anchor="start" x="121.1382" y="-175" font-family="Helvetica,sans-Serif" font-size="10.00" fill="#000000">&#45;avatar</text>
<text text-anchor="start" x="123.0882" y="-163" font-family="Helvetica,sans-Serif" font-size="10.00" fill="#000000">&#45;email</text>
<text text-anchor="start" x="113.6387" y="-151" font-family="Helvetica,sans-Serif" font-size="10.00" fill="#000000">&#45;password</text>
<text text-anchor="start" x="126.6977" y="-139" font-family="Helvetica,sans-Serif" font-size="10.00" fill="#000000">&#45;role</text>
</g>
<!-- A1 -->
<g id="node2" class="node">
<title>A1</title>
<polygon fill="none" stroke="#000000" points="105.1952,-44 105.1952,-76 168.1952,-76 168.1952,-44 105.1952,-44"/>
<text text-anchor="start" x="115.0287" y="-57" font-family="Helvetica,sans-Serif" font-size="10.00" fill="#000000">Customer</text>
<polygon fill="none" stroke="#000000" points="105.1952,0 105.1952,-44 168.1952,-44 168.1952,0 105.1952,0"/>
<text text-anchor="start" x="120.0277" y="-25" font-family="Helvetica,sans-Serif" font-size="10.00" fill="#000000">&#45;course</text>
<text text-anchor="start" x="125.3072" y="-13" font-family="Helvetica,sans-Serif" font-size="10.00" fill="#000000">&#45;user</text>
</g>
<!-- A0&#45;&gt;A1 -->
<g id="edge7" class="edge">
<title>A0&#45;&gt;A1</title>
<path fill="none" stroke="#000000" d="M136.1952,-115.4087C136.1952,-101.8998 136.1952,-88.2865 136.1952,-76.3245"/>
<polygon fill="#000000" stroke="#000000" points="136.1952,-125.6896 131.6953,-115.6896 136.1953,-120.6896 136.1953,-115.6896 136.1953,-115.6896 136.1953,-115.6896 136.1953,-120.6896 140.6953,-115.6897 136.1952,-125.6896 136.1952,-125.6896"/>
<text text-anchor="middle" x="144.6476" y="-91.4507" font-family="Helvetica,sans-Serif" font-size="10.00" fill="#000000">0..1</text>
<text text-anchor="middle" x="127.7429" y="-104.5635" font-family="Helvetica,sans-Serif" font-size="10.00" fill="#000000">1</text>
</g>
<!-- A2 -->
<g id="node3" class="node">
<title>A2</title>
<polygon fill="none" stroke="#000000" points="24.1952,-386 24.1952,-418 84.1952,-418 84.1952,-386 24.1952,-386"/>
<text text-anchor="start" x="45.5872" y="-399" font-family="Helvetica,sans-Serif" font-size="10.00" fill="#000000">Trip</text>
<polygon fill="none" stroke="#000000" points="24.1952,-318 24.1952,-386 84.1952,-386 84.1952,-318 24.1952,-318"/>
<text text-anchor="start" x="42.5327" y="-367" font-family="Helvetica,sans-Serif" font-size="10.00" fill="#000000">&#45;from</text>
<text text-anchor="start" x="48.3617" y="-355" font-family="Helvetica,sans-Serif" font-size="10.00" fill="#000000">&#45;to</text>
<text text-anchor="start" x="33.9137" y="-343" font-family="Helvetica,sans-Serif" font-size="10.00" fill="#000000">&#45;distance</text>
<text text-anchor="start" x="34.4697" y="-331" font-family="Helvetica,sans-Serif" font-size="10.00" fill="#000000">&#45;duration</text>
</g>
<!-- A3 -->
<g id="node4" class="node">
<title>A3</title>
<polygon fill="none" stroke="#000000" points="32.1952,-626 32.1952,-658 145.1952,-658 145.1952,-626 32.1952,-626"/>
<text text-anchor="start" x="78.4172" y="-639" font-family="Helvetica,sans-Serif" font-size="10.00" fill="#000000">Ride</text>
<polygon fill="none" stroke="#000000" points="32.1952,-486 32.1952,-626 145.1952,-626 145.1952,-486 32.1952,-486"/>
<text text-anchor="start" x="61.1892" y="-607" font-family="Helvetica,sans-Serif" font-size="10.00" fill="#000000">&#45;passengers</text>
<text text-anchor="start" x="41.7417" y="-595" font-family="Helvetica,sans-Serif" font-size="10.00" fill="#000000">&#45;passengersOneWay</text>
<text text-anchor="start" x="77.3027" y="-583" font-family="Helvetica,sans-Serif" font-size="10.00" fill="#000000">&#45;date</text>
<text text-anchor="start" x="44.5227" y="-571" font-family="Helvetica,sans-Serif" font-size="10.00" fill="#000000">&#45;pricePerPassenger</text>
<text text-anchor="start" x="63.1392" y="-559" font-family="Helvetica,sans-Serif" font-size="10.00" fill="#000000">&#45;extraCosts</text>
<text text-anchor="start" x="58.6902" y="-547" font-family="Helvetica,sans-Serif" font-size="10.00" fill="#000000">&#45;observations</text>
<text text-anchor="start" x="77.5827" y="-535" font-family="Helvetica,sans-Serif" font-size="10.00" fill="#000000">&#45;paid</text>
<text text-anchor="start" x="80.0867" y="-523" font-family="Helvetica,sans-Serif" font-size="10.00" fill="#000000">&#45;car</text>
<text text-anchor="start" x="80.0877" y="-511" font-family="Helvetica,sans-Serif" font-size="10.00" fill="#000000">&#45;trip</text>
<text text-anchor="start" x="78.4227" y="-499" font-family="Helvetica,sans-Serif" font-size="10.00" fill="#000000">&#45;bills</text>
</g>
<!-- A3&#45;&gt;A0 -->
<g id="edge3" class="edge">
<title>A3&#45;&gt;A0</title>
<path fill="none" stroke="#000000" d="M33.8372,-485.6895C26.1345,-469.7119 19.4097,-452.7627 15.1952,-436 .4571,-377.3799 -9.0095,-355.3865 15.1952,-300 32.905,-259.4755 73.3105,-227.0714 102.5668,-207.7465"/>
<text text-anchor="middle" x="92.3464" y="-221.9379" font-family="Helvetica,sans-Serif" font-size="10.00" fill="#000000">1</text>
<text text-anchor="middle" x="18.4472" y="-469.9166" font-family="Helvetica,sans-Serif" font-size="10.00" fill="#000000">n</text>
</g>
<!-- A3&#45;&gt;A2 -->
<g id="edge5" class="edge">
<title>A3&#45;&gt;A2</title>
<path fill="none" stroke="#000000" d="M73.8254,-485.7813C69.9832,-462.7279 65.9573,-438.5722 62.5585,-418.1796"/>
<text text-anchor="middle" x="73.8758" y="-431.6696" font-family="Helvetica,sans-Serif" font-size="10.00" fill="#000000">n</text>
<text text-anchor="middle" x="62.5082" y="-466.2914" font-family="Helvetica,sans-Serif" font-size="10.00" fill="#000000">1</text>
</g>
<!-- A4 -->
<g id="node5" class="node">
<title>A4</title>
<polygon fill="none" stroke="#000000" points="102.1952,-404 102.1952,-436 170.1952,-436 170.1952,-404 102.1952,-404"/>
<text text-anchor="start" x="129.5322" y="-417" font-family="Helvetica,sans-Serif" font-size="10.00" fill="#000000">Bill</text>
<polygon fill="none" stroke="#000000" points="102.1952,-300 102.1952,-404 170.1952,-404 170.1952,-300 102.1952,-300"/>
<text text-anchor="start" x="123.6922" y="-385" font-family="Helvetica,sans-Serif" font-size="10.00" fill="#000000">payer</text>
<text text-anchor="start" x="118.4182" y="-373" font-family="Helvetica,sans-Serif" font-size="10.00" fill="#000000">reciever</text>
<text text-anchor="start" x="126.4672" y="-361" font-family="Helvetica,sans-Serif" font-size="10.00" fill="#000000">date</text>
<text text-anchor="start" x="119.5232" y="-349" font-family="Helvetica,sans-Serif" font-size="10.00" fill="#000000">amount</text>
<text text-anchor="start" x="117.0277" y="-337" font-family="Helvetica,sans-Serif" font-size="10.00" fill="#000000">currency</text>
<text text-anchor="start" x="112.0247" y="-325" font-family="Helvetica,sans-Serif" font-size="10.00" fill="#000000">description</text>
<text text-anchor="start" x="126.7472" y="-313" font-family="Helvetica,sans-Serif" font-size="10.00" fill="#000000">paid</text>
</g>
<!-- A3&#45;&gt;A4 -->
<g id="edge2" class="edge">
<title>A3&#45;&gt;A4</title>
<path fill="none" stroke="#000000" d="M108.482,-485.7813C112.3711,-469.2524 116.3936,-452.1569 120.1274,-436.288"/>
<text text-anchor="middle" x="124.2035" y="-452.8683" font-family="Helvetica,sans-Serif" font-size="10.00" fill="#000000">1..n</text>
<text text-anchor="middle" x="104.4059" y="-463.2011" font-family="Helvetica,sans-Serif" font-size="10.00" fill="#000000">0..1</text>
</g>
<!-- A7 -->
<g id="node8" class="node">
<title>A7</title>
<polygon fill="none" stroke="#000000" points="189.1952,-386 189.1952,-418 284.1952,-418 284.1952,-386 189.1952,-386"/>
<text text-anchor="start" x="228.6417" y="-399" font-family="Helvetica,sans-Serif" font-size="10.00" fill="#000000">Car</text>
<polygon fill="none" stroke="#000000" points="189.1952,-318 189.1952,-386 284.1952,-386 284.1952,-318 189.1952,-318"/>
<text text-anchor="start" x="221.4182" y="-367" font-family="Helvetica,sans-Serif" font-size="10.00" fill="#000000">&#45;model</text>
<text text-anchor="start" x="213.6347" y="-355" font-family="Helvetica,sans-Serif" font-size="10.00" fill="#000000">&#45;freeSeats</text>
<text text-anchor="start" x="222.5232" y="-343" font-family="Helvetica,sans-Serif" font-size="10.00" fill="#000000">&#45;photo</text>
<text text-anchor="start" x="198.9127" y="-331" font-family="Helvetica,sans-Serif" font-size="10.00" fill="#000000">&#45;distancePerLiter</text>
</g>
<!-- A3&#45;&gt;A7 -->
<g id="edge6" class="edge">
<title>A3&#45;&gt;A7</title>
<path fill="none" stroke="#000000" d="M144.7812,-494.0031C163.2236,-468.5826 183.1958,-441.0532 199.7541,-418.2297"/>
<text text-anchor="middle" x="195.9515" y="-434.8648" font-family="Helvetica,sans-Serif" font-size="10.00" fill="#000000">n</text>
<text text-anchor="middle" x="148.5838" y="-471.368" font-family="Helvetica,sans-Serif" font-size="10.00" fill="#000000">1</text>
</g>
<!-- A4&#45;&gt;A0 -->
<g id="edge8" class="edge">
<title>A4&#45;&gt;A0</title>
<path fill="none" stroke="#000000" d="M136.1952,-299.9497C136.1952,-283.6225 136.1952,-266.2688 136.1952,-250.2215"/>
<text text-anchor="middle" x="144.6476" y="-265.3476" font-family="Helvetica,sans-Serif" font-size="10.00" fill="#000000">1</text>
<text text-anchor="middle" x="127.7429" y="-278.8236" font-family="Helvetica,sans-Serif" font-size="10.00" fill="#000000">n</text>
</g>
<!-- A5 -->
<g id="node6" class="node">
<title>A5</title>
<polygon fill="#fff8dc" stroke="#000000" points="404.5608,-594 293.8296,-594 293.8296,-550 410.5608,-550 410.5608,-588 404.5608,-594"/>
<polyline fill="none" stroke="#000000" points="404.5608,-594 404.5608,-588 "/>
<polyline fill="none" stroke="#000000" points="410.5608,-588 404.5608,-588 "/>
<text text-anchor="middle" x="352.1952" y="-581" font-family="Helvetica,sans-Serif" font-size="10.00" fill="#000000">Payer is optional</text>
<text text-anchor="middle" x="352.1952" y="-569" font-family="Helvetica,sans-Serif" font-size="10.00" fill="#000000">because of possible</text>
<text text-anchor="middle" x="352.1952" y="-557" font-family="Helvetica,sans-Serif" font-size="10.00" fill="#000000">guests</text>
</g>
<!-- A6 -->
<g id="node7" class="node">
<title>A6</title>
<polygon fill="none" stroke="#000000" points="197.1952,-590 197.1952,-622 276.1952,-622 276.1952,-590 197.1952,-590"/>
<text text-anchor="start" x="211.6897" y="-603" font-family="Helvetica,sans-Serif" font-size="10.00" fill="#000000">FuelSupply</text>
<polygon fill="none" stroke="#000000" points="197.1952,-522 197.1952,-590 276.1952,-590 276.1952,-522 197.1952,-522"/>
<text text-anchor="start" x="206.6967" y="-571" font-family="Helvetica,sans-Serif" font-size="10.00" fill="#000000">&#45;pricePerLiter</text>
<text text-anchor="start" x="224.1977" y="-559" font-family="Helvetica,sans-Serif" font-size="10.00" fill="#000000">&#45;price</text>
<text text-anchor="start" x="225.3027" y="-547" font-family="Helvetica,sans-Serif" font-size="10.00" fill="#000000">&#45;date</text>
<text text-anchor="start" x="228.0867" y="-535" font-family="Helvetica,sans-Serif" font-size="10.00" fill="#000000">&#45;car</text>
</g>
<!-- A6&#45;&gt;A7 -->
<g id="edge1" class="edge">
<title>A6&#45;&gt;A7</title>
<path fill="none" stroke="#000000" d="M236.1952,-521.8347C236.1952,-490.3358 236.1952,-449.8545 236.1952,-418.3252"/>
<text text-anchor="middle" x="244.6476" y="-433.4514" font-family="Helvetica,sans-Serif" font-size="10.00" fill="#000000">1</text>
<text text-anchor="middle" x="227.7429" y="-500.7086" font-family="Helvetica,sans-Serif" font-size="10.00" fill="#000000">0..n</text>
</g>
<!-- A7&#45;&gt;A0 -->
<g id="edge4" class="edge">
<title>A7&#45;&gt;A0</title>
<path fill="none" stroke="#000000" d="M208.3396,-317.86C196.3768,-296.3269 182.2946,-270.9789 169.7622,-248.4205"/>
<text text-anchor="middle" x="185.9537" y="-257.1608" font-family="Helvetica,sans-Serif" font-size="10.00" fill="#000000">1</text>
<text text-anchor="middle" x="192.1481" y="-303.1197" font-family="Helvetica,sans-Serif" font-size="10.00" fill="#000000">n</text>
</g>
<!-- A8 -->
<g id="node9" class="node">
<title>A8</title>
<polygon fill="#fff8dc" stroke="#000000" points="525.7701,-594 428.6203,-594 428.6203,-550 531.7701,-550 531.7701,-588 525.7701,-594"/>
<polyline fill="none" stroke="#000000" points="525.7701,-594 525.7701,-588 "/>
<polyline fill="none" stroke="#000000" points="531.7701,-588 525.7701,-588 "/>
<text text-anchor="middle" x="480.1952" y="-581" font-family="Helvetica,sans-Serif" font-size="10.00" fill="#000000">A bill can only be</text>
<text text-anchor="middle" x="480.1952" y="-569" font-family="Helvetica,sans-Serif" font-size="10.00" fill="#000000">linked to 0 or 1</text>
<text text-anchor="middle" x="480.1952" y="-557" font-family="Helvetica,sans-Serif" font-size="10.00" fill="#000000">ride</text>
</g>
</g>
</svg>
