<?xml version="1.0" encoding="UTF-8" standalone="no"?>
<!DOCTYPE svg PUBLIC "-//W3C//DTD SVG 1.1//EN"
 "http://www.w3.org/Graphics/SVG/1.1/DTD/svg11.dtd">
<!-- Generated by graphviz version 2.40.1 (20161225.0304)
 -->
<!-- Title: G Pages: 1 -->
<svg width="537pt" height="552pt"
 viewBox="0.00 0.00 537.31 552.00" xmlns="http://www.w3.org/2000/svg" xmlns:xlink="http://www.w3.org/1999/xlink">
<g id="graph0" class="graph" transform="scale(1 1) rotate(0) translate(4 548)">
<title>G</title>
<polygon fill="#ffffff" stroke="transparent" points="-4,4 -4,-548 533.3097,-548 533.3097,4 -4,4"/>
<!-- A0 -->
<g id="node1" class="node">
<title>A0</title>
<polygon fill="none" stroke="#000000" points="100.5227,-92 100.5227,-124 167.5227,-124 167.5227,-92 100.5227,-92"/>
<text text-anchor="start" x="123.4692" y="-105" font-family="Helvetica,sans-Serif" font-size="10.00" fill="#000000">User</text>
<polygon fill="none" stroke="#000000" points="100.5227,0 100.5227,-92 167.5227,-92 167.5227,0 100.5227,0"/>
<text text-anchor="start" x="110.1317" y="-73" font-family="Helvetica,sans-Serif" font-size="10.00" fill="#000000">&#45;username</text>
<text text-anchor="start" x="119.8552" y="-61" font-family="Helvetica,sans-Serif" font-size="10.00" fill="#000000">&#45;name</text>
<text text-anchor="start" x="118.4657" y="-49" font-family="Helvetica,sans-Serif" font-size="10.00" fill="#000000">&#45;avatar</text>
<text text-anchor="start" x="120.4157" y="-37" font-family="Helvetica,sans-Serif" font-size="10.00" fill="#000000">&#45;email</text>
<text text-anchor="start" x="110.9662" y="-25" font-family="Helvetica,sans-Serif" font-size="10.00" fill="#000000">&#45;password</text>
<text text-anchor="start" x="124.0252" y="-13" font-family="Helvetica,sans-Serif" font-size="10.00" fill="#000000">&#45;role</text>
</g>
<!-- A1 -->
<g id="node2" class="node">
<title>A1</title>
<polygon fill="none" stroke="#000000" points="21.5227,-260 21.5227,-292 81.5227,-292 81.5227,-260 21.5227,-260"/>
<text text-anchor="start" x="42.9147" y="-273" font-family="Helvetica,sans-Serif" font-size="10.00" fill="#000000">Trip</text>
<polygon fill="none" stroke="#000000" points="21.5227,-192 21.5227,-260 81.5227,-260 81.5227,-192 21.5227,-192"/>
<text text-anchor="start" x="39.8602" y="-241" font-family="Helvetica,sans-Serif" font-size="10.00" fill="#000000">&#45;from</text>
<text text-anchor="start" x="45.6892" y="-229" font-family="Helvetica,sans-Serif" font-size="10.00" fill="#000000">&#45;to</text>
<text text-anchor="start" x="31.2412" y="-217" font-family="Helvetica,sans-Serif" font-size="10.00" fill="#000000">&#45;distance</text>
<text text-anchor="start" x="31.7972" y="-205" font-family="Helvetica,sans-Serif" font-size="10.00" fill="#000000">&#45;duration</text>
</g>
<!-- A2 -->
<g id="node3" class="node">
<title>A2</title>
<polygon fill="none" stroke="#000000" points="29.5227,-512 29.5227,-544 142.5227,-544 142.5227,-512 29.5227,-512"/>
<text text-anchor="start" x="75.7447" y="-525" font-family="Helvetica,sans-Serif" font-size="10.00" fill="#000000">Ride</text>
<polygon fill="none" stroke="#000000" points="29.5227,-360 29.5227,-512 142.5227,-512 142.5227,-360 29.5227,-360"/>
<text text-anchor="start" x="58.5167" y="-493" font-family="Helvetica,sans-Serif" font-size="10.00" fill="#000000">&#45;passengers</text>
<text text-anchor="start" x="39.0692" y="-481" font-family="Helvetica,sans-Serif" font-size="10.00" fill="#000000">&#45;passengersOneWay</text>
<text text-anchor="start" x="74.6302" y="-469" font-family="Helvetica,sans-Serif" font-size="10.00" fill="#000000">&#45;date</text>
<text text-anchor="start" x="41.8502" y="-457" font-family="Helvetica,sans-Serif" font-size="10.00" fill="#000000">&#45;pricePerPassenger</text>
<text text-anchor="start" x="60.4667" y="-445" font-family="Helvetica,sans-Serif" font-size="10.00" fill="#000000">&#45;extraCosts</text>
<text text-anchor="start" x="56.0177" y="-433" font-family="Helvetica,sans-Serif" font-size="10.00" fill="#000000">&#45;observations</text>
<text text-anchor="start" x="74.9102" y="-421" font-family="Helvetica,sans-Serif" font-size="10.00" fill="#000000">&#45;paid</text>
<text text-anchor="start" x="77.4142" y="-409" font-family="Helvetica,sans-Serif" font-size="10.00" fill="#000000">&#45;car</text>
<text text-anchor="start" x="77.4152" y="-397" font-family="Helvetica,sans-Serif" font-size="10.00" fill="#000000">&#45;trip</text>
<text text-anchor="start" x="75.7502" y="-385" font-family="Helvetica,sans-Serif" font-size="10.00" fill="#000000">&#45;bills</text>
<text text-anchor="start" x="71.8607" y="-373" font-family="Helvetica,sans-Serif" font-size="10.00" fill="#000000">&#45;driver</text>
</g>
<!-- A2&#45;&gt;A0 -->
<g id="edge3" class="edge">
<title>A2&#45;&gt;A0</title>
<path fill="none" stroke="#000000" d="M31.145,-359.7753C5.8505,-304.4741 -13.5042,-233.5562 12.5227,-174 30.2325,-133.4755 70.638,-101.0714 99.8943,-81.7465"/>
<text text-anchor="middle" x="89.6739" y="-95.9379" font-family="Helvetica,sans-Serif" font-size="10.00" fill="#000000">1</text>
<text text-anchor="middle" x="16.1888" y="-343.497" font-family="Helvetica,sans-Serif" font-size="10.00" fill="#000000">n</text>
</g>
<!-- A2&#45;&gt;A1 -->
<g id="edge5" class="edge">
<title>A2&#45;&gt;A1</title>
<path fill="none" stroke="#000000" d="M70.6098,-359.8909C66.845,-336.6379 62.9416,-312.5286 59.6532,-292.2179"/>
<text text-anchor="middle" x="70.8939" y="-305.7601" font-family="Helvetica,sans-Serif" font-size="10.00" fill="#000000">1</text>
<text text-anchor="middle" x="59.3691" y="-340.3487" font-family="Helvetica,sans-Serif" font-size="10.00" fill="#000000">n</text>
</g>
<!-- A3 -->
<g id="node4" class="node">
<title>A3</title>
<polygon fill="none" stroke="#000000" points="99.5227,-278 99.5227,-310 167.5227,-310 167.5227,-278 99.5227,-278"/>
<text text-anchor="start" x="126.8597" y="-291" font-family="Helvetica,sans-Serif" font-size="10.00" fill="#000000">Bill</text>
<polygon fill="none" stroke="#000000" points="99.5227,-174 99.5227,-278 167.5227,-278 167.5227,-174 99.5227,-174"/>
<text text-anchor="start" x="121.0197" y="-259" font-family="Helvetica,sans-Serif" font-size="10.00" fill="#000000">payer</text>
<text text-anchor="start" x="115.7457" y="-247" font-family="Helvetica,sans-Serif" font-size="10.00" fill="#000000">receiver</text>
<text text-anchor="start" x="123.7947" y="-235" font-family="Helvetica,sans-Serif" font-size="10.00" fill="#000000">date</text>
<text text-anchor="start" x="116.8507" y="-223" font-family="Helvetica,sans-Serif" font-size="10.00" fill="#000000">amount</text>
<text text-anchor="start" x="114.3552" y="-211" font-family="Helvetica,sans-Serif" font-size="10.00" fill="#000000">currency</text>
<text text-anchor="start" x="109.3522" y="-199" font-family="Helvetica,sans-Serif" font-size="10.00" fill="#000000">description</text>
<text text-anchor="start" x="124.0747" y="-187" font-family="Helvetica,sans-Serif" font-size="10.00" fill="#000000">paid</text>
</g>
<!-- A2&#45;&gt;A3 -->
<g id="edge2" class="edge">
<title>A2&#45;&gt;A3</title>
<path fill="none" stroke="#000000" d="M106.5762,-359.8909C110.405,-343.14 114.3354,-325.9446 117.9695,-310.045"/>
<text text-anchor="middle" x="122.1704" y="-326.5988" font-family="Helvetica,sans-Serif" font-size="10.00" fill="#000000">1..n</text>
<text text-anchor="middle" x="102.3753" y="-337.3371" font-family="Helvetica,sans-Serif" font-size="10.00" fill="#000000">0..1</text>
</g>
<!-- A6 -->
<g id="node7" class="node">
<title>A6</title>
<polygon fill="none" stroke="#000000" points="186.5227,-260 186.5227,-292 281.5227,-292 281.5227,-260 186.5227,-260"/>
<text text-anchor="start" x="225.9692" y="-273" font-family="Helvetica,sans-Serif" font-size="10.00" fill="#000000">Car</text>
<polygon fill="none" stroke="#000000" points="186.5227,-192 186.5227,-260 281.5227,-260 281.5227,-192 186.5227,-192"/>
<text text-anchor="start" x="218.7457" y="-241" font-family="Helvetica,sans-Serif" font-size="10.00" fill="#000000">&#45;model</text>
<text text-anchor="start" x="210.9622" y="-229" font-family="Helvetica,sans-Serif" font-size="10.00" fill="#000000">&#45;freeSeats</text>
<text text-anchor="start" x="219.8507" y="-217" font-family="Helvetica,sans-Serif" font-size="10.00" fill="#000000">&#45;photo</text>
<text text-anchor="start" x="196.2402" y="-205" font-family="Helvetica,sans-Serif" font-size="10.00" fill="#000000">&#45;distancePerLiter</text>
</g>
<!-- A2&#45;&gt;A6 -->
<g id="edge6" class="edge">
<title>A2&#45;&gt;A6</title>
<path fill="none" stroke="#000000" d="M142.1086,-371.7091C160.959,-344.9619 181.4078,-315.9468 198.1755,-292.1548"/>
<text text-anchor="middle" x="194.6425" y="-308.8403" font-family="Helvetica,sans-Serif" font-size="10.00" fill="#000000">1</text>
<text text-anchor="middle" x="145.6417" y="-349.0236" font-family="Helvetica,sans-Serif" font-size="10.00" fill="#000000">n</text>
</g>
<!-- A3&#45;&gt;A0 -->
<g id="edge7" class="edge">
<title>A3&#45;&gt;A0</title>
<path fill="none" stroke="#000000" d="M133.5227,-173.9497C133.5227,-157.6225 133.5227,-140.2688 133.5227,-124.2215"/>
<text text-anchor="middle" x="141.9751" y="-139.3476" font-family="Helvetica,sans-Serif" font-size="10.00" fill="#000000">1</text>
<text text-anchor="middle" x="125.0703" y="-152.8236" font-family="Helvetica,sans-Serif" font-size="10.00" fill="#000000">n</text>
</g>
<!-- A4 -->
<g id="node5" class="node">
<title>A4</title>
<polygon fill="#fff8dc" stroke="#000000" points="401.8883,-474 291.1571,-474 291.1571,-430 407.8883,-430 407.8883,-468 401.8883,-474"/>
<polyline fill="none" stroke="#000000" points="401.8883,-474 401.8883,-468 "/>
<polyline fill="none" stroke="#000000" points="407.8883,-468 401.8883,-468 "/>
<text text-anchor="middle" x="349.5227" y="-461" font-family="Helvetica,sans-Serif" font-size="10.00" fill="#000000">Payer is optional</text>
<text text-anchor="middle" x="349.5227" y="-449" font-family="Helvetica,sans-Serif" font-size="10.00" fill="#000000">because of possible</text>
<text text-anchor="middle" x="349.5227" y="-437" font-family="Helvetica,sans-Serif" font-size="10.00" fill="#000000">guests</text>
</g>
<!-- A5 -->
<g id="node6" class="node">
<title>A5</title>
<polygon fill="none" stroke="#000000" points="194.5227,-470 194.5227,-502 273.5227,-502 273.5227,-470 194.5227,-470"/>
<text text-anchor="start" x="209.0172" y="-483" font-family="Helvetica,sans-Serif" font-size="10.00" fill="#000000">FuelSupply</text>
<polygon fill="none" stroke="#000000" points="194.5227,-402 194.5227,-470 273.5227,-470 273.5227,-402 194.5227,-402"/>
<text text-anchor="start" x="204.0242" y="-451" font-family="Helvetica,sans-Serif" font-size="10.00" fill="#000000">&#45;pricePerLiter</text>
<text text-anchor="start" x="221.5252" y="-439" font-family="Helvetica,sans-Serif" font-size="10.00" fill="#000000">&#45;price</text>
<text text-anchor="start" x="222.6302" y="-427" font-family="Helvetica,sans-Serif" font-size="10.00" fill="#000000">&#45;date</text>
<text text-anchor="start" x="225.4142" y="-415" font-family="Helvetica,sans-Serif" font-size="10.00" fill="#000000">&#45;car</text>
</g>
<!-- A5&#45;&gt;A6 -->
<g id="edge1" class="edge">
<title>A5&#45;&gt;A6</title>
<path fill="none" stroke="#000000" d="M233.5227,-401.9666C233.5227,-368.7261 233.5227,-325.2501 233.5227,-292.0136"/>
<text text-anchor="middle" x="241.9751" y="-307.1398" font-family="Helvetica,sans-Serif" font-size="10.00" fill="#000000">1</text>
<text text-anchor="middle" x="225.0703" y="-380.8404" font-family="Helvetica,sans-Serif" font-size="10.00" fill="#000000">0..n</text>
</g>
<!-- A6&#45;&gt;A0 -->
<g id="edge4" class="edge">
<title>A6&#45;&gt;A0</title>
<path fill="none" stroke="#000000" d="M205.6671,-191.86C193.7043,-170.3269 179.6221,-144.9789 167.0896,-122.4205"/>
<text text-anchor="middle" x="183.2812" y="-131.1608" font-family="Helvetica,sans-Serif" font-size="10.00" fill="#000000">1</text>
<text text-anchor="middle" x="189.4756" y="-177.1197" font-family="Helvetica,sans-Serif" font-size="10.00" fill="#000000">n</text>
</g>
<!-- A7 -->
<g id="node8" class="node">
<title>A7</title>
<polygon fill="#fff8dc" stroke="#000000" points="523.0976,-474 425.9478,-474 425.9478,-430 529.0976,-430 529.0976,-468 523.0976,-474"/>
<polyline fill="none" stroke="#000000" points="523.0976,-474 523.0976,-468 "/>
<polyline fill="none" stroke="#000000" points="529.0976,-468 523.0976,-468 "/>
<text text-anchor="middle" x="477.5227" y="-461" font-family="Helvetica,sans-Serif" font-size="10.00" fill="#000000">A bill can only be</text>
<text text-anchor="middle" x="477.5227" y="-449" font-family="Helvetica,sans-Serif" font-size="10.00" fill="#000000">linked to 0 or 1</text>
<text text-anchor="middle" x="477.5227" y="-437" font-family="Helvetica,sans-Serif" font-size="10.00" fill="#000000">ride</text>
</g>
</g>
</svg>
