<?xml version="1.0" encoding="UTF-8" standalone="no"?>
<!DOCTYPE svg PUBLIC "-//W3C//DTD SVG 1.1//EN"
 "http://www.w3.org/Graphics/SVG/1.1/DTD/svg11.dtd">
<!-- Generated by graphviz version 2.40.1 (20161225.0304)
 -->
<!-- Title: G Pages: 1 -->
<svg width="1025pt" height="265pt"
 viewBox="0.00 0.00 1024.57 265.00" xmlns="http://www.w3.org/2000/svg" xmlns:xlink="http://www.w3.org/1999/xlink">
<g id="graph0" class="graph" transform="scale(1 1) rotate(0) translate(4 261)">
<title>G</title>
<polygon fill="#ffffff" stroke="transparent" points="-4,4 -4,-261 1020.5656,-261 1020.5656,4 -4,4"/>
<!-- A0 -->
<g id="node1" class="node">
<title>A0</title>
<g transform="translate(271.5652,-218)" style="fill:none;stroke:black;stroke-width:1px"><circle cx="0" cy="-20" r="7.5" />
                <line x1="0" y1="-12.5" x2="0" y2="5" />
                <line x1="-15" y1="-5" x2="15" y2="-5" />
                <line x1="0" y1="5" x2="-15" y2="17" />
                <line x1="0" y1="5" x2="15" y2="17" /></g>
<text text-anchor="middle" x="271.5652" y="-193" font-family="Helvetica,sans-Serif" font-size="10.00" fill="#000000">Admin</text>
</g>
<!-- A1 -->
<g id="node2" class="node">
<title>A1</title>
<ellipse fill="none" stroke="#000000" cx="48.5652" cy="-116" rx="48.6306" ry="18"/>
<text text-anchor="middle" x="48.5652" y="-113" font-family="Helvetica,sans-Serif" font-size="10.00" fill="#000000">CRUD User</text>
</g>
<!-- A0&#45;&gt;A1 -->
<g id="edge1" class="edge">
<title>A0&#45;&gt;A1</title>
<path fill="none" stroke="#000000" d="M228.0392,-200.5057C184.0562,-179.7962 117.2541,-148.3423 78.7659,-130.2201"/>
</g>
<!-- A2 -->
<g id="node3" class="node">
<title>A2</title>
<ellipse fill="none" stroke="#000000" cx="161.5652" cy="-116" rx="46.452" ry="18"/>
<text text-anchor="middle" x="161.5652" y="-113" font-family="Helvetica,sans-Serif" font-size="10.00" fill="#000000">CRUD Trip</text>
</g>
<!-- A0&#45;&gt;A2 -->
<g id="edge2" class="edge">
<title>A0&#45;&gt;A2</title>
<path fill="none" stroke="#000000" d="M233.7095,-184.865C215.1898,-167.1871 193.7886,-146.7586 179.1338,-132.77"/>
</g>
<!-- A3 -->
<g id="node4" class="node">
<title>A3</title>
<ellipse fill="none" stroke="#000000" cx="383.5652" cy="-116" rx="48.8246" ry="18"/>
<text text-anchor="middle" x="383.5652" y="-113" font-family="Helvetica,sans-Serif" font-size="10.00" fill="#000000">Create Ride</text>
</g>
<!-- A0&#45;&gt;A3 -->
<g id="edge3" class="edge">
<title>A0&#45;&gt;A3</title>
<path fill="none" stroke="#000000" d="M310.1093,-184.865C328.9657,-167.1871 350.756,-146.7586 365.6772,-132.77"/>
</g>
<!-- A4 -->
<g id="node5" class="node">
<title>A4</title>
<ellipse fill="none" stroke="#000000" cx="271.5652" cy="-116" rx="45.6172" ry="18"/>
<text text-anchor="middle" x="271.5652" y="-113" font-family="Helvetica,sans-Serif" font-size="10.00" fill="#000000">CRUD Car</text>
</g>
<!-- A0&#45;&gt;A4 -->
<g id="edge4" class="edge">
<title>A0&#45;&gt;A4</title>
<path fill="none" stroke="#000000" d="M271.5652,-184.865C271.5652,-167.7803 271.5652,-148.1266 271.5652,-134.1997"/>
</g>
<!-- A5 -->
<g id="node6" class="node">
<title>A5</title>
<ellipse fill="none" stroke="#000000" cx="518.5652" cy="-116" rx="67.7351" ry="18"/>
<text text-anchor="middle" x="518.5652" y="-113" font-family="Helvetica,sans-Serif" font-size="10.00" fill="#000000">CRUD Fuel Supply</text>
</g>
<!-- A0&#45;&gt;A5 -->
<g id="edge5" class="edge">
<title>A0&#45;&gt;A5</title>
<path fill="none" stroke="#000000" d="M315.1553,-202.4698C362.7972,-182.2172 438.2428,-150.1452 482.6246,-131.2784"/>
</g>
<!-- A8 -->
<g id="node9" class="node">
<title>A8</title>
<ellipse fill="none" stroke="#000000" cx="272.5652" cy="-18" rx="47.6426" ry="18"/>
<text text-anchor="middle" x="272.5652" y="-15" font-family="Helvetica,sans-Serif" font-size="10.00" fill="#000000">Create Bills</text>
</g>
<!-- A3&#45;&gt;A8 -->
<g id="edge9" class="edge">
<title>A3&#45;&gt;A8</title>
<path fill="none" stroke="#000000" stroke-dasharray="5,2" d="M359.8184,-100.2029C348.7319,-92.4559 335.5766,-82.7161 324.5352,-73 313.9517,-63.6868 303.1091,-52.517 294.0842,-42.6837"/>
<polygon fill="#000000" stroke="#000000" points="287.2759,-35.145 297.318,-39.5503 290.6271,-38.8558 293.9784,-42.5665 293.9784,-42.5665 293.9784,-42.5665 290.6271,-38.8558 290.6387,-45.5826 287.2759,-35.145 287.2759,-35.145"/>
<text text-anchor="middle" x="352.0802" y="-64" font-family="Helvetica,sans-Serif" font-size="10.00" fill="#000000">&lt;&lt;include&gt;&gt;</text>
</g>
<!-- A9 -->
<g id="node10" class="node">
<title>A9</title>
<ellipse fill="none" stroke="#000000" cx="383.5652" cy="-18" rx="45.6389" ry="18"/>
<text text-anchor="middle" x="383.5652" y="-15" font-family="Helvetica,sans-Serif" font-size="10.00" fill="#000000">Select Trip</text>
</g>
<!-- A3&#45;&gt;A9 -->
<g id="edge10" class="edge">
<title>A3&#45;&gt;A9</title>
<path fill="none" stroke="#000000" stroke-dasharray="5,2" d="M383.5652,-97.5669C383.5652,-83.1034 383.5652,-62.7239 383.5652,-46.2111"/>
<polygon fill="#000000" stroke="#000000" points="383.5652,-36.0193 388.0653,-46.0192 383.5653,-41.0193 383.5653,-46.0193 383.5653,-46.0193 383.5653,-46.0193 383.5653,-41.0193 379.0653,-46.0193 383.5652,-36.0193 383.5652,-36.0193"/>
<text text-anchor="middle" x="411.0802" y="-64" font-family="Helvetica,sans-Serif" font-size="10.00" fill="#000000">&lt;&lt;include&gt;&gt;</text>
</g>
<!-- A10 -->
<g id="node11" class="node">
<title>A10</title>
<ellipse fill="none" stroke="#000000" cx="491.5652" cy="-18" rx="44.8052" ry="18"/>
<text text-anchor="middle" x="491.5652" y="-15" font-family="Helvetica,sans-Serif" font-size="10.00" fill="#000000">Select Car</text>
</g>
<!-- A3&#45;&gt;A10 -->
<g id="edge11" class="edge">
<title>A3&#45;&gt;A10</title>
<path fill="none" stroke="#000000" stroke-dasharray="5,2" d="M407.7159,-100.1454C418.7633,-92.4613 431.7661,-82.7898 442.5652,-73 452.6321,-63.874 462.7833,-52.8491 471.2147,-43.0736"/>
<polygon fill="#000000" stroke="#000000" points="477.8531,-35.2252 474.831,-45.7664 474.6241,-39.0428 471.3951,-42.8604 471.3951,-42.8604 471.3951,-42.8604 474.6241,-39.0428 467.9593,-39.9543 477.8531,-35.2252 477.8531,-35.2252"/>
<text text-anchor="middle" x="482.0802" y="-64" font-family="Helvetica,sans-Serif" font-size="10.00" fill="#000000">&lt;&lt;include&gt;&gt;</text>
</g>
<!-- A6 -->
<g id="node7" class="node">
<title>A6</title>
<g transform="translate(678.5652,-218)" style="fill:none;stroke:black;stroke-width:1px"><circle cx="0" cy="-20" r="7.5" />
                <line x1="0" y1="-12.5" x2="0" y2="5" />
                <line x1="-15" y1="-5" x2="15" y2="-5" />
                <line x1="0" y1="5" x2="-15" y2="17" />
                <line x1="0" y1="5" x2="15" y2="17" /></g>
<text text-anchor="middle" x="678.5652" y="-193" font-family="Helvetica,sans-Serif" font-size="10.00" fill="#000000">User</text>
</g>
<!-- A6&#45;&gt;A3 -->
<g id="edge7" class="edge">
<title>A6&#45;&gt;A3</title>
<path fill="none" stroke="#000000" d="M638.7802,-206.8392C580.9048,-186.2395 474.3808,-148.3242 419.0391,-128.6263"/>
</g>
<!-- A6&#45;&gt;A5 -->
<g id="edge8" class="edge">
<title>A6&#45;&gt;A5</title>
<path fill="none" stroke="#000000" d="M638.6032,-194.7749C608.9839,-175.3373 569.4989,-149.4252 544.0504,-132.7246"/>
</g>
<!-- A7 -->
<g id="node8" class="node">
<title>A7</title>
<ellipse fill="none" stroke="#000000" cx="678.5652" cy="-116" rx="35.6059" ry="18"/>
<text text-anchor="middle" x="678.5652" y="-113" font-family="Helvetica,sans-Serif" font-size="10.00" fill="#000000">Sign In</text>
</g>
<!-- A6&#45;&gt;A7 -->
<g id="edge6" class="edge">
<title>A6&#45;&gt;A7</title>
<path fill="none" stroke="#000000" d="M678.5652,-184.865C678.5652,-167.7803 678.5652,-148.1266 678.5652,-134.1997"/>
</g>
<!-- A11 -->
<g id="node12" class="node">
<title>A11</title>
<ellipse fill="none" stroke="#000000" cx="637.5652" cy="-18" rx="43.464" ry="18"/>
<text text-anchor="middle" x="637.5652" y="-15" font-family="Helvetica,sans-Serif" font-size="10.00" fill="#000000">List Rides</text>
</g>
<!-- A6&#45;&gt;A11 -->
<g id="edge12" class="edge">
<title>A6&#45;&gt;A11</title>
<path fill="none" stroke="#000000" d="M654.9495,-184.8584C646.434,-169.7789 637.8669,-151.6796 633.5652,-134 625.3236,-100.1272 630.0478,-59.0607 633.9775,-35.9923"/>
</g>
<!-- A12 -->
<g id="node13" class="node">
<title>A12</title>
<ellipse fill="none" stroke="#000000" cx="928.5652" cy="-116" rx="69.7412" ry="18"/>
<text text-anchor="middle" x="928.5652" y="-113" font-family="Helvetica,sans-Serif" font-size="10.00" fill="#000000">List Common Users</text>
</g>
<!-- A6&#45;&gt;A12 -->
<g id="edge13" class="edge">
<title>A6&#45;&gt;A12</title>
<path fill="none" stroke="#000000" d="M718.4549,-204.2463C766.1528,-184.2132 845.3372,-150.9558 891.6695,-131.4962"/>
</g>
<!-- A13 -->
<g id="node14" class="node">
<title>A13</title>
<ellipse fill="none" stroke="#000000" cx="968.5652" cy="-18" rx="38.7678" ry="18"/>
<text text-anchor="middle" x="968.5652" y="-15" font-family="Helvetica,sans-Serif" font-size="10.00" fill="#000000">List Bills</text>
</g>
<!-- A6&#45;&gt;A13 -->
<g id="edge14" class="edge">
<title>A6&#45;&gt;A13</title>
<path fill="none" stroke="#000000" d="M718.4903,-216.4633C798.1541,-206.5027 972.2428,-179.8771 1007.5652,-134 1030.7668,-103.8656 1002.455,-59.1591 983.3247,-34.9916"/>
</g>
<!-- A14 -->
<g id="node15" class="node">
<title>A14</title>
<ellipse fill="none" stroke="#000000" cx="786.5652" cy="-116" rx="54.6911" ry="18"/>
<text text-anchor="middle" x="786.5652" y="-113" font-family="Helvetica,sans-Serif" font-size="10.00" fill="#000000">List Payments</text>
</g>
<!-- A6&#45;&gt;A14 -->
<g id="edge15" class="edge">
<title>A6&#45;&gt;A14</title>
<path fill="none" stroke="#000000" d="M715.7327,-184.865C733.7937,-167.3057 754.6459,-147.0327 769.0255,-133.0525"/>
</g>
<!-- A14&#45;&gt;A11 -->
<g id="edge16" class="edge">
<title>A14&#45;&gt;A11</title>
<path fill="none" stroke="#000000" stroke-dasharray="5,2" d="M761.9609,-99.8173C736.6021,-83.1384 696.969,-57.0709 669.2734,-38.855"/>
<polygon fill="#000000" stroke="#000000" points="660.7341,-33.2385 671.5617,-34.974 664.9115,-35.9861 669.0889,-38.7337 669.0889,-38.7337 669.0889,-38.7337 664.9115,-35.9861 666.6161,-42.4934 660.7341,-33.2385 660.7341,-33.2385"/>
<text text-anchor="middle" x="748.0802" y="-64" font-family="Helvetica,sans-Serif" font-size="10.00" fill="#000000">&lt;&lt;include&gt;&gt;</text>
</g>
<!-- A14&#45;&gt;A13 -->
<g id="edge17" class="edge">
<title>A14&#45;&gt;A13</title>
<path fill="none" stroke="#000000" stroke-dasharray="5,2" d="M815.4037,-100.4716C847.5619,-83.1557 899.5591,-55.1572 933.9042,-36.6636"/>
<polygon fill="#000000" stroke="#000000" points="943.092,-31.7164 936.4208,-40.4195 938.6897,-34.0869 934.2873,-36.4574 934.2873,-36.4574 934.2873,-36.4574 938.6897,-34.0869 932.1538,-32.4953 943.092,-31.7164 943.092,-31.7164"/>
<text text-anchor="middle" x="915.0802" y="-64" font-family="Helvetica,sans-Serif" font-size="10.00" fill="#000000">&lt;&lt;include&gt;&gt;</text>
</g>
<!-- A15 -->
<g id="node16" class="node">
<title>A15</title>
<ellipse fill="none" stroke="#000000" cx="786.5652" cy="-18" rx="64.0715" ry="18"/>
<text text-anchor="middle" x="786.5652" y="-15" font-family="Helvetica,sans-Serif" font-size="10.00" fill="#000000">List Fuel Supplies</text>
</g>
<!-- A14&#45;&gt;A15 -->
<g id="edge18" class="edge">
<title>A14&#45;&gt;A15</title>
<path fill="none" stroke="#000000" stroke-dasharray="5,2" d="M786.5652,-97.5669C786.5652,-83.1034 786.5652,-62.7239 786.5652,-46.2111"/>
<polygon fill="#000000" stroke="#000000" points="786.5652,-36.0193 791.0653,-46.0192 786.5653,-41.0193 786.5653,-46.0193 786.5653,-46.0193 786.5653,-46.0193 786.5653,-41.0193 782.0653,-46.0193 786.5652,-36.0193 786.5652,-36.0193"/>
<text text-anchor="middle" x="814.0802" y="-64" font-family="Helvetica,sans-Serif" font-size="10.00" fill="#000000">&lt;&lt;include&gt;&gt;</text>
</g>
</g>
</svg>
